<?xml version="1.0" encoding="utf-8"?>
<!-- Generator: Adobe Illustrator 15.1.0, SVG Export Plug-In . SVG Version: 6.00 Build 0)  -->
<!DOCTYPE svg PUBLIC "-//W3C//DTD SVG 1.1//EN" "http://www.w3.org/Graphics/SVG/1.1/DTD/svg11.dtd">
<svg version="1.1" id="レイヤー_1" xmlns="http://www.w3.org/2000/svg" xmlns:xlink="http://www.w3.org/1999/xlink" x="0px"
	 y="0px" width="137px" height="132px" viewBox="0 0 137 132" enable-background="new 0 0 137 132" xml:space="preserve">
<path fill-rule="evenodd" clip-rule="evenodd" d="M75.99,15.998c10.502-2.501,19.361-7.735,28.997-4
	c10.088,3.911,18.704,21.196,12.998,34.996c11.144,10.413,22.466,33.617,6.999,45.994c-3.582,2.867-8.053,2.605-12.998,4.999
	c4.077,24.097-30.126,31.528-43.995,18.998c-14.355,26.296-53.75-6.988-36.996-31.996c-0.986-2.347-1.753-4.912-2-7.999
	C1.19,76.028,1.926,26.339,33.996,30.996c5.775-3.698,4.331-11.118,7.999-15.998c4.847-6.448,12.75-8.93,23.997-8.999
	C69.584,9.073,73.841,11.482,75.99,15.998z"/>
</svg>
