<?xml version="1.0" encoding="utf-8"?>
<!-- Generator: Adobe Illustrator 15.1.0, SVG Export Plug-In . SVG Version: 6.00 Build 0)  -->
<!DOCTYPE svg PUBLIC "-//W3C//DTD SVG 1.1//EN" "http://www.w3.org/Graphics/SVG/1.1/DTD/svg11.dtd">
<svg version="1.1" id="レイヤー_1" xmlns="http://www.w3.org/2000/svg" xmlns:xlink="http://www.w3.org/1999/xlink" x="0px"
	 y="0px" width="122px" height="102px" viewBox="0 0 122 102" enable-background="new 0 0 122 102" xml:space="preserve">
<path fill-rule="evenodd" clip-rule="evenodd" d="M103.987,7.999c10.94,15.113,21.549,50.903,3.999,65.992
	c-12.725,4.581-29.11,4.729-38.995-3c-7.972,14.025-17.46,26.534-39.995,25.997c-4.078-4.146-13.947-8.681-17.998-16.998
	C8.344,74.54,2.83,47.564,4,39.995c2.392-15.474,37.989-24.375,46.994-8.999c5.141-1.191,10.102-2.563,14.999-4
	c2.415-4.583,3.989-10.009,5.999-14.998C81.415,8.564,92.064,3.362,103.987,7.999z"/>
</svg>
