<?xml version="1.0" encoding="utf-8"?>
<!-- Generator: Adobe Illustrator 15.1.0, SVG Export Plug-In . SVG Version: 6.00 Build 0)  -->
<!DOCTYPE svg PUBLIC "-//W3C//DTD SVG 1.1//EN" "http://www.w3.org/Graphics/SVG/1.1/DTD/svg11.dtd">
<svg version="1.1" id="レイヤー_1" xmlns="http://www.w3.org/2000/svg" xmlns:xlink="http://www.w3.org/1999/xlink" x="0px"
	 y="0px" width="139px" height="149px" viewBox="0 0 139 149" enable-background="new 0 0 139 149" xml:space="preserve">
<path fill-rule="evenodd" clip-rule="evenodd" d="M94.988,52.993c11.931,0.141,13.964-10.471,24.997-7.999
	c16.863,3.779,14.499,50.508,3.999,60.992c-4.42,2.626-10.881-0.115-14.998-0.999c-1.006,8.711,12.049,10.898,12.998,18.997
	c1.476,12.579-20.568,22.405-32.995,21.997c-18.313-0.602-26.738-13.273-32.996-23.997C31.537,124.777,22.84,111.81,5,107.986
	c-2.407-3.26-2.158-9.174-2-14.998c1.231-5.549,8.906-5.335,11.999-9.999c2.322-3.501,2.528-10.526,5-14.998
	c5.004-9.055,9.474-14.982,21.997-17.998C51.492,27.161,59.109,2.449,91.988,3c1.651,2.682,4.239,4.427,5.999,6.999
	C99.341,26.683,94.101,36.774,94.988,52.993z"/>
</svg>
