<?xml version="1.0" encoding="utf-8"?>
<!-- Generator: Adobe Illustrator 15.1.0, SVG Export Plug-In . SVG Version: 6.00 Build 0)  -->
<!DOCTYPE svg PUBLIC "-//W3C//DTD SVG 1.1//EN" "http://www.w3.org/Graphics/SVG/1.1/DTD/svg11.dtd">
<svg version="1.1" id="レイヤー_1" xmlns="http://www.w3.org/2000/svg" xmlns:xlink="http://www.w3.org/1999/xlink" x="0px"
	 y="0px" width="103px" height="117px" viewBox="0 0 103 117" enable-background="new 0 0 103 117" xml:space="preserve">
<path fill-rule="evenodd" clip-rule="evenodd" d="M68.991,46.994c2.271,6.395,13.289,4.042,19.998,5.999
	c7.631,7.033,9.719,19.61,10.998,32.996c-3.191,4.141-10.923,3.742-16.998,4.999c-7.472,8.306-12.548,21.174-25.996,22.997
	c-16.929,2.296-31.598-8.349-39.995-18.997c-2.271,1.728-5.586,2.412-9.999,2c-6.515-8.491-1.268-25.873,0-35.996
	c2.607-3.059,7.12-4.212,11.999-4.999C-3.938,35.838,25.888-6.18,55.993,7.999C66.453,12.925,77.555,31.812,68.991,46.994z"/>
</svg>
