<?xml version="1.0" encoding="utf-8"?>
<!-- Generator: Adobe Illustrator 15.1.0, SVG Export Plug-In . SVG Version: 6.00 Build 0)  -->
<!DOCTYPE svg PUBLIC "-//W3C//DTD SVG 1.1//EN" "http://www.w3.org/Graphics/SVG/1.1/DTD/svg11.dtd">
<svg version="1.1" id="レイヤー_1" xmlns="http://www.w3.org/2000/svg" xmlns:xlink="http://www.w3.org/1999/xlink" x="0px"
	 y="0px" width="68px" height="148px" viewBox="0 0 68 148" enable-background="new 0 0 68 148" xml:space="preserve">
<path fill-rule="evenodd" clip-rule="evenodd" d="M67.991,23.997c0,0.667,0,1.333,0,2c-3.563,8.102-8.918,14.413-17.997,16.998
	c-0.646,4.354,1.304,11.303-1,13.998c2.468,3.865,7.408,5.257,11.998,7c1.591,17.893,5.793,40.372-13.998,40.995
	c-5.329,18.001-0.62,46.04-26.997,42.994c-1.333,0-2.667,0-4,0c0-0.333,0-0.667,0-1c-10.494-1.349-9.882-16.059-6-23.997
	c5.328-3.007,12.719-0.876,15.998-3.999c0-2.333,0-4.666,0-6.999c-7.259-0.74-12.196-3.802-17.998-6
	c-1.124-5.774-4.932-8.615-6-12.998C-5.859,60.72,14.01,42.805,33.996,32.996c0-9.666,0-19.331,0-28.997
	C51.568-3.16,68.747,4.245,67.991,23.997z"/>
</svg>
