<?xml version="1.0" encoding="utf-8"?>
<!-- Generator: Adobe Illustrator 15.1.0, SVG Export Plug-In . SVG Version: 6.00 Build 0)  -->
<!DOCTYPE svg PUBLIC "-//W3C//DTD SVG 1.1//EN" "http://www.w3.org/Graphics/SVG/1.1/DTD/svg11.dtd">
<svg version="1.1" id="レイヤー_1" xmlns="http://www.w3.org/2000/svg" xmlns:xlink="http://www.w3.org/1999/xlink" x="0px"
	 y="0px" width="800px" height="800px" viewBox="0 0 800 800" enable-background="new 0 0 800 800" xml:space="preserve">
<path fill-rule="evenodd" clip-rule="evenodd" fill="none" stroke="#000000" stroke-miterlimit="10" d="M543.932,118.985
	c3.437,5.883,13.13,9.759,8.999,19.997c1.569,2.431,8.414-0.415,8.999,3c13.271,6.06,14.349,24.313,26.997,30.996
	c-1.175,10.506,8.494,10.169,6.999,20.997c10.722,13.815,17.841,28.947,28.996,41.995c3.715,4.345,9.375,6.977,12.998,10.999
	c9.092,10.092,15.215,19.752,24.997,26.997c4.752,3.519,10.752,5.113,15.998,8.999c11.525,8.535,23.003,19.528,34.996,28.996
	c12.239,9.663,21.186,20.753,28.996,33.996c14.838,25.158,29.503,57.585,30.996,95.988c0.9,23.166-2.19,55.552-11.999,72.991
	c-5.442,9.678-15.788,17.015-20.997,26.997c-4.449,8.525-6.067,17.998-9.999,25.996c-11.051,22.483-29.012,42.882-44.994,61.992
	c-18.54,10.678-35.751,26.633-60.992,27.997c-0.828,0.045-6.572-2.087-6.999-2c-5.792,1.179-13.727,7.795-20.997,10.999
	c-14.797,6.519-31.207,11.022-49.994,13.998c-17.445,2.762-31.347,5.734-46.994-1c4.919-9.333,15.054-12.091,22.997-17.998
	c15.485-11.515,25.822-28.998,37.995-43.994c-9.858,2.877-21.632,10.068-34.995,12.998c-11.835,2.595-32.47,8.208-34.996-2.999
	c16.791-7.022,35.911-15.546,49.994-27.997c15.062-13.317,30.296-34.132,41.994-54.993c17.499-31.203,22.056-68.039,14.998-103.986
	c-12.182-62.052-39.942-119.995-51.993-178.978c-17.95,27.377-33.105,57.549-47.994,87.989c4.696,31.131-8.709,52.539-26.996,63.992
	c-8.705,13.497,1.735,34.359-11.999,42.994c2.703,13.093-2.946,24.615-2,33.996c1.055,10.449,10.251,17.412,14.999,24.997
	c-3.899,9.772,9.453,11.255,3.999,21.997c2.422,2.553,5.132-5.104,7.999,0c-1.057,14.829-5.696,20.106-10.999,29.996
	c2.216,6.784,8.369,9.63,8.999,17.998c-8.056,1.226-13.019,8.779-21.997,5.999c0.24,12.676-2.969,23.262-3.999,35.996
	c-1.757,21.708,5.55,44.027,0.999,62.992c-2.067,8.617-9.123,20.812-15.997,26.996c-8.756,7.878-25.051,17.99-34.996,18.998
	c-29.966,3.034-29.057-30.521-27.997-52.994c2.426-1.573,4.27-3.729,8.999-2.999c2.04-23.229-0.526-55.543,2-79.99
	c-6.195-1.552-19.32-1.915-22.997-8.999c-11.677,2.06-11.725,17.23-16.998,26.997c-2.182,4.04-6.873,6.96-8.999,10.998
	c-7.546,14.333-9.833,30.747-17.998,42.995c7.556,9.356-2.743,15.979-5,22.997c-2.953,9.184,0.513,20.073-6,25.997
	c-35.919,10.631-66.262-13.514-59.992-60.993c2.692-20.389,18.703-47.183,26.997-66.991c3.058-7.304,10.545-13.81,6.999-19.998
	c-9.155,0.558-22.743-0.592-24.997-9.998c1.034-6.649,8.847-8.514,10.999-12.999c1.332-2.776,3.928-11.254,4-14.998
	c0.093-4.888-6.573-12.615-2-18.997c4.31-4.355,10.04-7.292,18.998-6.999c11.276-15.721,27.4-26.594,28.997-51.994
	c-8.346-2.652-18.059-3.938-24.997-7.999c-22.762,8.234-46.085,15.908-69.991,22.997c-7.707,34.659-11.525,70.427-24.997,103.987
	c-5.583,13.908-16.112,28.381-16.998,41.995c-1.504,23.121,18.079,59.547,28.996,73.99c4.551,6.021,13.466,9.982,12.999,17.998
	c-6.735,4.402-18.84,3.091-26.997,2c-16.431-2.198-33.175-12.868-41.995-20.998c-3.332,0.335-4.436,2.897-8.999,2
	c-33.071-8.924-54.716-29.273-67.991-57.992c-11.444-9.157-20.355-12.356-28.997-20.998c-30.724-30.724-22.037-100.06-4-134.982
	c8.45-16.361,20.123-29.266,31.996-45.995c14.426-20.326,32.69-46.082,48.994-68.991c5.089-7.15,13.604-17.89,14.998-23.997
	c1.158-5.071-0.363-11.448,0-15.998c1.326-16.622,5.568-29.21,10.999-39.995c-19.422,2.538-33.131-22.564-28.997-41.995
	c4.283-20.126,22.96-23.282,35.996-7.999c5.621-7.711,7.615-19.048,17.998-21.997c1.696-8.969,6.02-15.312,11.999-19.998
	c-8.111-18.086-5.487-45.991,9.999-53.993c14.745-2.342,21.668,8.231,29.996,8.999c7.541-8.665,8.071-33.861,23.997-34.996
	c2.561-0.182,6.289,2.051,7.999,3c0.581,0.323,6.277,5.006,5.999,5c3.035,0.07,17.554-13.86,23.997-16.998
	c9.197-4.479,22.743-6.734,30.996-9.999c5.527-2.186,10.71-7.336,14.998-8.999c15.674-6.077,31.338-2.838,49.994-5.999
	c-0.151-17.731,5.472-33.993,18.998-36.996c6.877-1.526,14.531,1.913,21.997,1c5.355-0.655,11.309-5.269,17.998-6.999
	c17.844-4.617,34.846-3.697,49.993,4c15.469,7.86,29.21,20.683,34.996,36.995C553.561,79.337,559.877,106.897,543.932,118.985z
	 M230.971,426.946c15.75-4.581,27.18-13.481,41.995-18.997c8.726-19.938,21.664-35.663,46.994-38.995c-2.375-0.625,0.155-6.155-2-7
	c-10.13-4.535-23.542-5.787-32.996-10.999c1.219,7.113,6.118,10.547,6.999,17.998c-6.854,3.791-14.167-2.155-19.998-5
	c-23.856-11.637-39.093-29.734-50.994-50.994C228.151,347.11,232.023,384.566,230.971,426.946z"/>
</svg>
